<?xml version="1.0" encoding="utf-8"?>
<!-- Generator: Adobe Illustrator 16.0.0, SVG Export Plug-In . SVG Version: 6.00 Build 0)  -->
<!DOCTYPE svg PUBLIC "-//W3C//DTD SVG 1.1//EN" "http://www.w3.org/Graphics/SVG/1.1/DTD/svg11.dtd">
<svg version="1.1" id="Layer_1" xmlns="http://www.w3.org/2000/svg" xmlns:xlink="http://www.w3.org/1999/xlink" x="0px" y="0px"
	 width="120.25px" height="41.333px" viewBox="0 0 120.25 41.333" enable-background="new 0 0 120.25 41.333" xml:space="preserve">
<g>
	<g>
		<rect x="95.156" y="24.393" fill="#19A8B1" width="8.055" height="5.141"/>
		<path fill="#7DD7DB" d="M51.863,25.756c1.277-11.74-15.111-12.668-15.408-0.922c0.117,6.996,5.37,9.285,14.183,7.25l-0.132-3.207
			c-4.077,1.375-9.067,1.492-10.068-2.988L51.863,25.756z"/>
		<path fill="#FFFFFF" d="M40.261,23.099c1.261-4.805,6.059-4.674,7.684-2.021c-1.866-0.52-3.624-0.346-5.254,0.658
			c2.889-0.417,5.574-0.576,7.115,0.771c0.409,0.748-1.22,0.851-1.238-0.274l-0.558-0.015
			C47.375,24.724,44.456,24.638,40.261,23.099"/>
		<polygon fill="#00B1B8" points="17.91,33.051 17.91,16.599 22.266,16.599 22.266,23.071 30.791,23.071 30.791,16.599 
			35.141,16.599 35.141,33.051 30.791,33.051 30.791,25.856 22.266,25.856 22.266,33.051 		"/>
		<path fill="#00B1B8" d="M57.496,33.026h-4.133v-16.19h3.834v2.298c0.657-1.086,1.249-1.805,1.771-2.147
			c0.527-0.342,1.121-0.52,1.786-0.52c0.943,0,1.848,0.271,2.721,0.813l-1.279,3.73c-0.69-0.463-1.34-0.697-1.937-0.697
			c-0.583,0-1.067,0.162-1.47,0.493c-0.408,0.329-0.719,0.928-0.948,1.793c-0.232,0.861-0.345,2.675-0.345,5.427V33.026z"/>
		<path fill="#00B1B8" d="M64.796,16.835h4.185v2.206c1.494-1.717,3.283-2.578,5.353-2.578c1.097,0,2.051,0.214,2.858,0.641
			c0.809,0.426,1.471,1.073,1.99,1.937c0.748-0.861,1.566-1.511,2.438-1.937c0.871-0.427,1.802-0.641,2.795-0.641
			c1.259,0,2.329,0.244,3.199,0.729c0.871,0.479,1.523,1.19,1.953,2.124c0.314,0.689,0.47,1.811,0.47,3.355v10.354h-4.541v-9.252
			c0-1.607-0.153-2.646-0.468-3.113c-0.42-0.608-1.063-0.916-1.938-0.916c-0.64,0-1.234,0.182-1.797,0.552
			c-0.557,0.364-0.96,0.899-1.208,1.61c-0.248,0.706-0.375,1.82-0.375,3.346v7.773h-4.54v-8.873c0-1.576-0.081-2.59-0.242-3.051
			c-0.16-0.455-0.414-0.796-0.75-1.019c-0.342-0.225-0.801-0.34-1.384-0.34c-0.7,0-1.331,0.18-1.886,0.537
			c-0.563,0.353-0.967,0.868-1.211,1.54c-0.24,0.672-0.362,1.781-0.362,3.336v7.868h-4.537V16.835H64.796z"/>
		<path fill="#19A8B1" d="M101.83,24.988c-0.581,0.181-1.501,0.397-2.764,0.653c-1.26,0.256-2.082,0.506-2.471,0.744
			c-0.591,0.4-0.891,0.9-0.891,1.51c0,0.604,0.238,1.12,0.713,1.557c0.477,0.438,1.074,0.656,1.809,0.656
			c0.822,0,1.602-0.254,2.346-0.76c0.551-0.387,0.912-0.857,1.08-1.422c0.123-0.364,0.178-1.063,0.178-2.086V24.988L101.83,24.988z"
			/>
		<path fill="#00B1B8" d="M93.549,17.582c6.969-2.516,12.197-0.786,12.457,4.815l0.118,2.523l0,0v7.82l-3.604-0.066
			c0-1.039,0.057-2.028-0.069-2.649c-0.646,1.197-1.582,1.759-2.399,2.241c-1.406,0.832-4.689,1.22-6.635-0.229
			c-1.863-1.393-2.646-4.105-1.162-6.41c1.046-1.614,2.826-2.229,4.619-2.549c2.117-0.377,4.4-0.136,5.285-0.246
			c0.074-0.746-0.006-2.419-0.975-2.827c-0.511-0.215-1.086-0.79-2.285-0.79c-0.453,0-2.113-0.316-5.305,1.192l-0.103,0.045v-2.852
			L93.549,17.582z"/>
		<path fill="#FFFFFF" d="M95.215,31.309c-1.504-5.598,3.436-8.243,6.617-6.494c-2.189,0.555-3.874,1.746-4.943,3.708
			c2.684-2.099,5.314-3.813,7.653-3.339c0.849,0.523-0.744,1.568-1.413,0.438l-0.572,0.312
			C103.361,28.838,100.359,30.439,95.215,31.309"/>
		<path fill="#00B1B8" d="M107.766,29.137c6.623,2.592,9.49-0.205,5.383-2.571c-2.379-0.847-4.106-1.915-4.922-3.173
			c-2.666-4.097,2.483-9.13,10.352-6.033l-0.35,2.989c-5.06-2.688-8.252,0.279-4.994,2.101c7.451,2.291,7.572,7.152,4.123,9.459
			c-2.143,1.432-5.783,1.772-9.768,0.303L107.766,29.137z"/>
		<g>
			<path fill="#969696" d="M18.357,35.784v2.821c0,0.442,0.107,0.772,0.318,0.985c0.21,0.214,0.5,0.32,0.867,0.32
				c0.368,0,0.655-0.104,0.863-0.318c0.206-0.211,0.31-0.539,0.31-0.987v-2.821h0.45v2.813c0,0.567-0.151,0.995-0.453,1.282
				c-0.301,0.285-0.693,0.432-1.175,0.432c-0.484,0-0.876-0.146-1.177-0.432c-0.301-0.287-0.452-0.715-0.452-1.282v-2.813H18.357
				L18.357,35.784z"/>
			<path fill="#969696" d="M25.544,40.262h-0.449l-2.481-3.77v3.77h-0.449v-4.479h0.449l2.481,3.762v-3.762h0.449V40.262z"/>
			<path fill="#969696" d="M29.159,39.202h-2.038l-0.391,1.062h-0.476l1.634-4.423h0.506l1.629,4.423H29.55L29.159,39.202z
				 M29.024,38.827l-0.885-2.422l-0.885,2.422H29.024z"/>
			<path fill="#969696" d="M34.119,40.262h-0.447l-2.481-3.77v3.77h-0.449v-4.479h0.449l2.481,3.762v-3.762h0.447V40.262z"/>
			<path fill="#969696" d="M35.587,35.784v4.479h-0.45v-4.479H35.587z"/>
			<path fill="#969696" d="M41.689,35.784v4.479h-0.45v-2.095H38.81v2.095h-0.449v-4.479h0.449v2.014h2.429v-2.014H41.689z"/>
			<path fill="#969696" d="M43.163,36.149v1.67h1.697v0.373h-1.697v1.697h1.89v0.371h-2.341v-4.484h2.341v0.372L43.163,36.149
				L43.163,36.149z"/>
			<path fill="#969696" d="M48.322,40.262l-1.108-1.87h-0.828v1.87h-0.448v-4.479h1.346c0.498,0,0.879,0.118,1.137,0.359
				c0.259,0.238,0.388,0.552,0.388,0.938c0,0.328-0.093,0.604-0.281,0.834c-0.185,0.229-0.459,0.375-0.822,0.445l1.153,1.9h-0.537
				V40.262z M46.386,38.028h0.905c0.35,0,0.615-0.085,0.792-0.258c0.176-0.171,0.266-0.4,0.266-0.688
				c0-0.295-0.085-0.521-0.255-0.682c-0.17-0.16-0.441-0.24-0.807-0.24h-0.898v1.866L46.386,38.028L46.386,38.028z"/>
			<path fill="#969696" d="M52.438,38.334c0.175,0.209,0.262,0.451,0.262,0.729c0,0.226-0.058,0.431-0.17,0.612
				c-0.113,0.182-0.279,0.326-0.496,0.43c-0.218,0.105-0.479,0.154-0.782,0.154h-1.551v-4.479h1.506
				c0.452,0,0.798,0.104,1.033,0.313c0.238,0.212,0.357,0.48,0.357,0.816c0,0.275-0.074,0.5-0.226,0.672
				c-0.149,0.176-0.341,0.295-0.578,0.365C52.048,37.999,52.262,38.125,52.438,38.334z M50.149,37.764h1.044
				c0.304,0,0.539-0.071,0.704-0.217c0.164-0.141,0.246-0.338,0.246-0.592c0-0.248-0.082-0.439-0.246-0.582
				c-0.165-0.143-0.406-0.213-0.721-0.213H50.15L50.149,37.764L50.149,37.764z M51.98,39.655c0.18-0.152,0.271-0.365,0.271-0.635
				s-0.095-0.482-0.286-0.643c-0.188-0.162-0.445-0.242-0.763-0.242H50.15v1.75h1.069C51.546,39.885,51.797,39.808,51.98,39.655z"/>
			<path fill="#969696" d="M56.122,39.202h-2.038l-0.39,1.062h-0.475l1.634-4.423h0.505l1.628,4.423h-0.473L56.122,39.202z
				 M55.988,38.827l-0.885-2.422l-0.886,2.422H55.988z"/>
			<path fill="#969696" d="M58.156,39.898h1.607v0.365h-2.057v-4.479h0.449V39.898z"/>
			<path fill="#969696" d="M64.648,38c-0.252,0.235-0.631,0.354-1.137,0.354h-0.902v1.908h-0.448v-4.479h1.353
				c0.5,0,0.877,0.116,1.131,0.352c0.256,0.236,0.381,0.55,0.381,0.938C65.025,37.456,64.9,37.768,64.648,38z M64.564,37.071
				c0-0.298-0.084-0.521-0.25-0.677c-0.166-0.153-0.435-0.231-0.803-0.231h-0.902v1.805h0.902
				C64.216,37.967,64.564,37.67,64.564,37.071z"/>
			<path fill="#969696" d="M69.104,35.784v4.479h-0.449v-2.095h-2.43v2.095h-0.449v-4.479h0.449v2.014h2.43v-2.014H69.104z"/>
			<path fill="#969696" d="M72.725,39.202h-2.039l-0.392,1.062H69.82l1.633-4.423h0.508l1.628,4.423h-0.473L72.725,39.202z
				 M72.591,38.827l-0.886-2.422l-0.885,2.422H72.591z"/>
			<path fill="#969696" d="M76.691,40.262l-1.108-1.87h-0.828v1.87h-0.446v-4.479h1.344c0.502,0,0.882,0.118,1.14,0.359
				c0.258,0.238,0.388,0.552,0.388,0.938c0,0.328-0.094,0.604-0.279,0.834c-0.186,0.229-0.459,0.375-0.822,0.445l1.152,1.9h-0.539
				V40.262z M74.755,38.028h0.905c0.35,0,0.615-0.085,0.792-0.258c0.179-0.171,0.266-0.4,0.266-0.688
				c0-0.295-0.085-0.521-0.256-0.682c-0.172-0.16-0.44-0.24-0.808-0.24h-0.897v1.866L74.755,38.028L74.755,38.028z"/>
			<path fill="#969696" d="M82.447,35.84v4.422h-0.448v-3.529l-1.578,3.529h-0.325l-1.578-3.52v3.52h-0.449V35.84h0.476l1.711,3.834
				l1.712-3.834H82.447z"/>
			<path fill="#969696" d="M86.063,39.202h-2.039l-0.391,1.062h-0.476l1.635-4.423H85.3l1.626,4.423h-0.473L86.063,39.202z
				 M85.928,38.827l-0.886-2.422l-0.883,2.422H85.928z"/>
			<path fill="#969696" d="M87.729,36.836c0.192-0.35,0.455-0.619,0.789-0.813s0.705-0.293,1.115-0.293
				c0.499,0,0.928,0.12,1.284,0.357c0.356,0.236,0.617,0.57,0.778,1.002h-0.524c-0.126-0.303-0.323-0.541-0.585-0.711
				c-0.264-0.172-0.58-0.256-0.953-0.256c-0.328,0-0.624,0.076-0.888,0.23c-0.265,0.152-0.47,0.374-0.619,0.661
				c-0.147,0.291-0.224,0.624-0.224,1.004c0,0.382,0.074,0.715,0.224,1c0.149,0.287,0.354,0.506,0.619,0.66
				c0.264,0.155,0.56,0.231,0.888,0.231c0.373,0,0.689-0.086,0.953-0.252c0.264-0.17,0.459-0.402,0.585-0.701h0.524
				c-0.161,0.426-0.422,0.758-0.78,0.992c-0.358,0.236-0.787,0.352-1.282,0.352c-0.41,0-0.779-0.098-1.115-0.289
				c-0.332-0.196-0.595-0.465-0.787-0.811c-0.192-0.348-0.289-0.74-0.289-1.183C87.439,37.583,87.537,37.187,87.729,36.836z"/>
			<path fill="#969696" d="M93.037,36.149v1.67h1.699v0.373h-1.699v1.697h1.891v0.371h-2.34v-4.484h2.34v0.372L93.037,36.149
				L93.037,36.149z"/>
			<path fill="#969696" d="M96.24,35.784v2.821c0,0.442,0.107,0.772,0.318,0.985c0.211,0.214,0.5,0.32,0.869,0.32
				c0.367,0,0.654-0.104,0.86-0.318c0.207-0.211,0.313-0.539,0.313-0.987v-2.821h0.445v2.813c0,0.567-0.148,0.995-0.449,1.282
				c-0.304,0.285-0.695,0.432-1.177,0.432c-0.485,0-0.877-0.146-1.177-0.432c-0.303-0.287-0.453-0.715-0.453-1.282v-2.813H96.24
				L96.24,35.784z"/>
			<path fill="#969696" d="M102.671,35.784v0.373h-1.245v4.105h-0.449v-4.105h-1.248v-0.373H102.671z"/>
			<path fill="#969696" d="M103.83,35.784v4.479h-0.449v-4.479H103.83z"/>
			<path fill="#969696" d="M104.932,36.836c0.193-0.35,0.455-0.619,0.789-0.813c0.336-0.193,0.707-0.293,1.116-0.293
				c0.499,0,0.929,0.12,1.282,0.357c0.357,0.236,0.617,0.57,0.779,1.002h-0.524c-0.129-0.303-0.325-0.541-0.587-0.711
				c-0.264-0.172-0.579-0.256-0.95-0.256c-0.329,0-0.626,0.076-0.888,0.23c-0.264,0.152-0.469,0.374-0.619,0.661
				c-0.15,0.291-0.227,0.624-0.227,1.004c0,0.382,0.076,0.715,0.227,1c0.15,0.287,0.355,0.506,0.619,0.66
				c0.262,0.155,0.559,0.231,0.888,0.231c0.371,0,0.688-0.086,0.95-0.252c0.264-0.17,0.458-0.402,0.587-0.701h0.524
				c-0.162,0.426-0.422,0.758-0.78,0.992c-0.359,0.236-0.788,0.352-1.281,0.352c-0.409,0-0.784-0.098-1.116-0.289
				c-0.332-0.196-0.596-0.465-0.789-0.811c-0.191-0.348-0.287-0.74-0.287-1.183C104.645,37.583,104.741,37.187,104.932,36.836z"/>
			<path fill="#969696" d="M112.387,39.202h-2.039l-0.391,1.062h-0.475l1.636-4.423h0.506l1.626,4.423h-0.475L112.387,39.202z
				 M112.251,38.827l-0.885-2.422l-0.886,2.422H112.251z"/>
			<path fill="#969696" d="M114.417,39.898h1.61v0.365h-2.057v-4.479h0.447L114.417,39.898L114.417,39.898z"/>
			<path fill="#969696" d="M117.25,40.157c-0.227-0.105-0.402-0.246-0.529-0.432c-0.129-0.184-0.195-0.389-0.205-0.615h0.475
				c0.021,0.219,0.117,0.41,0.287,0.574s0.422,0.246,0.75,0.246c0.306,0,0.545-0.077,0.722-0.234
				c0.176-0.154,0.267-0.354,0.267-0.592c0-0.193-0.05-0.348-0.146-0.465c-0.102-0.118-0.223-0.205-0.368-0.262
				c-0.146-0.061-0.347-0.123-0.601-0.189c-0.301-0.081-0.539-0.16-0.713-0.238c-0.178-0.078-0.326-0.195-0.449-0.359
				c-0.125-0.162-0.188-0.383-0.188-0.66c0-0.23,0.063-0.438,0.18-0.619c0.119-0.182,0.287-0.323,0.506-0.426
				c0.219-0.102,0.469-0.155,0.75-0.155c0.414,0,0.75,0.103,1.004,0.306c0.256,0.202,0.402,0.465,0.439,0.785h-0.486
				c-0.03-0.183-0.131-0.347-0.303-0.488c-0.17-0.145-0.402-0.217-0.689-0.217c-0.271,0-0.496,0.072-0.674,0.217
				c-0.182,0.143-0.271,0.336-0.271,0.586c0,0.188,0.051,0.34,0.148,0.455c0.099,0.113,0.222,0.203,0.369,0.262
				c0.146,0.061,0.346,0.123,0.597,0.193c0.29,0.082,0.528,0.159,0.707,0.239c0.179,0.079,0.329,0.201,0.454,0.363
				c0.123,0.161,0.187,0.379,0.187,0.651c0,0.211-0.056,0.412-0.165,0.597c-0.111,0.188-0.273,0.342-0.494,0.456
				c-0.217,0.115-0.479,0.176-0.783,0.176C117.732,40.31,117.473,40.254,117.25,40.157z"/>
		</g>
	</g>
	<circle fill="#00B1B8" cx="19.538" cy="12.261" r="2.627"/>
	<circle fill="#7FD8DB" cx="25.438" cy="10.863" r="1.534"/>
	<circle fill="#7FD8DB" cx="19.538" cy="6.152" r="1.675"/>
	<circle fill="#7FD8DB" cx="11.06" cy="9.113" r="2.093"/>
	<circle fill="#01B1B8" cx="30.633" cy="3.88" r="1.394"/>
	<path fill="#00B1B8" d="M9.878,3.618c0,1.432-1.161,2.592-2.593,2.592c-1.434,0-2.595-1.16-2.595-2.592
		c0-1.435,1.161-2.596,2.595-2.596C8.717,1.022,9.878,2.183,9.878,3.618z"/>
	<circle fill="#00B1B8" cx="2.101" cy="8.874" r="1.393"/>
</g>
</svg>
